# 3ds Max Wavefront OBJ Exporter v0.97b - (c)2007 guruware
# File Created: 12.11.2017 22:36:22

mtllib Broken Plank 2.mtl

#
# object Broken_Plank_3
#

v  -31.1270 0.0000 4.2843
v  -31.7702 0.0000 0.2164
v  -31.7702 0.6667 0.2164
v  -31.5127 0.6667 3.6366
v  -33.8522 0.0000 -2.7913
v  -33.8522 0.6667 -2.7913
v  -35.0687 0.0000 -5.0237
v  -36.5127 0.6667 -5.0237
v  -39.7762 0.0000 -6.2115
v  -39.7762 0.6667 -6.2115
v  -43.2492 0.0000 -7.5328
v  -43.2492 0.6667 -7.1304
v  -46.5127 0.0000 -5.0237
v  -46.5127 0.6667 -6.1030
v  -49.1731 0.0000 -2.7913
v  -49.1731 0.6667 -2.7913
v  -51.0203 -0.6603 -0.4594
v  -51.0203 0.0064 -0.4594
v  -51.5127 0.0000 3.6366
v  -51.5127 0.6667 3.6366
v  -51.4317 0.0000 6.5824
v  -51.4317 0.6667 6.5824
v  -49.1731 0.0000 10.0645
v  -49.1731 0.6667 10.0645
v  -46.5127 0.0000 12.2968
v  -46.5127 0.6667 12.2968
v  -43.2492 0.0000 13.4847
v  -43.2492 0.6667 12.7453
v  -39.7762 0.0000 13.4847
v  -39.7762 0.6667 13.4847
v  -36.5127 0.0000 12.2968
v  -36.5127 0.6667 12.2968
v  -33.8522 0.0000 10.0645
v  -33.8522 0.6667 10.0645
v  -31.7300 0.0000 7.7045
v  -32.1158 0.6667 7.0568
v  -32.1158 1.3333 0.2164
v  -31.5127 1.3333 3.6366
v  -34.1097 1.3333 -2.7913
v  -36.5127 1.3333 -5.0237
v  -39.3890 1.3333 -6.5972
v  -43.2492 1.3333 -6.8529
v  -45.0687 1.3333 -6.1030
v  -49.1731 1.3333 -2.7913
v  -50.9096 1.3333 0.2164
v  -51.5127 1.3333 3.6366
v  -50.9096 1.3333 7.0568
v  -48.3821 1.3333 9.3606
v  -46.5127 1.3333 12.2968
v  -43.2492 1.3333 12.7453
v  -39.7762 1.3333 13.4847
v  -37.0348 1.3333 11.8225
v  -33.8522 1.3333 10.0645
v  -32.1158 1.3333 7.0568
v  -32.1158 2.0000 0.2164
v  -31.5127 2.0000 3.6366
v  -33.8522 2.0000 -2.7913
v  -36.5127 2.0000 -5.0237
v  -39.3890 2.0000 -6.5972
v  -43.2492 2.0000 -7.0646
v  -46.5127 2.0000 -6.1030
v  -49.1731 2.0000 -2.7913
v  -50.9096 2.0000 0.2164
v  -50.2123 2.0000 3.6366
v  -50.9096 2.0000 7.0568
v  -48.3821 2.0000 9.3606
v  -46.5127 2.0000 12.2968
v  -43.2492 2.0000 13.4847
v  -39.7762 2.0000 13.4847
v  -37.0348 2.0000 12.2971
v  -33.8522 2.0000 10.0645
v  -32.5628 2.0000 6.3751
# 72 vertices

vn 0.8382 0.5396 0.0798
vn 0.9282 0.0000 -0.3720
vn 0.9155 0.2292 -0.3306
vn 0.9606 0.2778 -0.0001
vn 0.7491 0.1177 -0.6519
vn 0.7446 0.1343 -0.6539
vn 0.4021 0.8408 -0.3625
vn 0.4777 0.3371 -0.8113
vn 0.2560 0.0330 -0.9661
vn 0.2153 -0.2530 -0.9432
vn 0.0011 0.4168 -0.9090
vn -0.0093 0.4543 -0.8908
vn -0.5098 -0.7107 -0.4848
vn -0.6077 0.0123 -0.7941
vn -0.7216 0.0000 -0.6923
vn -0.7782 -0.0079 -0.6280
vn -0.9254 0.0000 -0.3790
vn -0.9093 0.1177 -0.3991
vn -0.9988 0.0000 -0.0496
vn -0.9996 0.0233 -0.0139
vn -0.9549 0.0000 0.2969
vn -0.9230 0.2770 0.2670
vn -0.7491 0.0000 0.6624
vn -0.6964 0.4416 0.5657
vn -0.4169 0.0691 0.9063
vn -0.4053 0.0000 0.9142
vn -0.1786 0.6971 0.6943
vn -0.1963 0.3729 0.9069
vn 0.1736 0.0000 0.9848
vn 0.1574 0.0664 0.9853
vn 0.5000 0.0000 0.8660
vn 0.4471 0.3444 0.8255
vn 0.7561 0.0664 0.6511
vn 0.7660 0.0000 0.6428
vn 0.6201 0.7010 0.3523
vn 0.8826 0.3432 0.3213
vn 0.9165 0.2059 -0.3429
vn 1.0000 0.0000 0.0000
vn 0.7390 0.0137 -0.6736
vn 0.5757 0.0080 -0.8176
vn 0.2673 -0.2793 -0.9223
vn -0.1022 -0.0027 -0.9948
vn -0.4136 -0.0540 -0.9089
vn -0.7902 0.0343 -0.6119
vn -0.9531 0.1720 -0.2490
vn -0.8766 0.4805 -0.0262
vn -0.8377 0.0818 0.5399
vn -0.7051 0.4466 0.5507
vn -0.5217 0.0156 0.8530
vn -0.1276 -0.3825 0.9151
vn 0.1375 -0.0227 0.9902
vn 0.4849 0.1076 0.8679
vn 0.7565 0.0624 0.6510
vn 0.8625 0.3627 0.3530
vn 0.9397 0.0000 -0.3420
vn 0.9981 0.0612 0.0114
vn 0.7356 -0.2631 -0.6243
vn 0.5821 -0.0160 -0.8130
vn 0.3056 0.0000 -0.9522
vn -0.0990 -0.2849 -0.9534
vn -0.3882 -0.8176 -0.4252
vn -0.7636 -0.0690 -0.6419
vn -0.9870 0.0000 -0.1605
vn -0.5068 0.8592 -0.0704
vn -0.8795 0.1251 0.4592
vn -0.7653 0.0000 0.6437
vn -0.6260 0.0000 0.7798
vn -0.0603 -0.7098 0.7019
vn 0.1116 -0.0689 0.9914
vn 0.4660 -0.4813 0.7424
vn 0.7676 -0.0360 0.6399
vn 0.6653 0.6886 0.2884
vn 0.0000 -1.0000 -0.0000
vn -0.0022 -0.9999 0.0153
vn -0.7372 -0.6754 0.0203
vn 0.1790 -0.9817 0.0647
vn 0.0099 -0.9999 -0.0122
vn -0.4761 -0.6719 -0.5673
vn 0.0000 1.0000 -0.0000
# 79 vertex normals

vt 0.0226 0.0920 1.0000
vt 0.0226 0.0734 1.0000
vt 0.1999 0.0734 1.0000
vt 0.1999 0.0920 1.0000
vt 0.0226 0.0548 1.0000
vt 0.1999 0.0548 1.0000
vt 0.0226 0.0362 1.0000
vt 0.1999 0.0362 1.0000
vt 0.0226 0.0176 1.0000
vt 0.1999 0.0176 1.0000
vt 0.0226 -0.0010 1.0000
vt 0.1999 -0.0010 1.0000
vt 0.0226 0.3339 1.0000
vt 0.0226 0.3153 1.0000
vt 0.1999 0.3153 1.0000
vt 0.1999 0.3339 1.0000
vt 0.0226 0.2967 1.0000
vt 0.1999 0.2967 1.0000
vt 0.0226 0.2781 1.0000
vt 0.1999 0.2781 1.0000
vt 0.0226 0.2595 1.0000
vt 0.1999 0.2595 1.0000
vt 0.0226 0.2409 1.0000
vt 0.1999 0.2409 1.0000
vt 0.0226 0.2222 1.0000
vt 0.1999 0.2222 1.0000
vt 0.0226 0.2036 1.0000
vt 0.1999 0.2036 1.0000
vt 0.0226 0.1850 1.0000
vt 0.1999 0.1850 1.0000
vt 0.0226 0.1664 1.0000
vt 0.1999 0.1664 1.0000
vt 0.0226 0.1478 1.0000
vt 0.1999 0.1478 1.0000
vt 0.0226 0.1292 1.0000
vt 0.1999 0.1292 1.0000
vt 0.0226 0.1106 1.0000
vt 0.1999 0.1106 1.0000
vt 0.3772 0.0734 1.0000
vt 0.3772 0.0920 1.0000
vt 0.3772 0.0548 1.0000
vt 0.3772 0.0362 1.0000
vt 0.3772 0.0176 1.0000
vt 0.3772 -0.0010 1.0000
vt 0.3772 0.3153 1.0000
vt 0.3772 0.3339 1.0000
vt 0.3772 0.2967 1.0000
vt 0.3772 0.2781 1.0000
vt 0.3772 0.2595 1.0000
vt 0.3772 0.2409 1.0000
vt 0.3772 0.2222 1.0000
vt 0.3772 0.2036 1.0000
vt 0.3772 0.1850 1.0000
vt 0.3772 0.1664 1.0000
vt 0.3772 0.1478 1.0000
vt 0.3772 0.1292 1.0000
vt 0.3772 0.1106 1.0000
vt 0.5545 0.0734 1.0000
vt 0.5545 0.0920 1.0000
vt 0.5545 0.0548 1.0000
vt 0.5545 0.0362 1.0000
vt 0.5545 0.0176 1.0000
vt 0.5545 -0.0010 1.0000
vt 0.5545 0.3153 1.0000
vt 0.5545 0.3339 1.0000
vt 0.5545 0.2967 1.0000
vt 0.5545 0.2781 1.0000
vt 0.5545 0.2595 1.0000
vt 0.5545 0.2409 1.0000
vt 0.5545 0.2222 1.0000
vt 0.5545 0.2036 1.0000
vt 0.5545 0.1850 1.0000
vt 0.5545 0.1664 1.0000
vt 0.5545 0.1478 1.0000
vt 0.5545 0.1292 1.0000
vt 0.5545 0.1106 1.0000
vt 0.6145 0.8847 -0.2500
vt 0.6726 0.9469 -0.2500
vt 0.7437 0.9800 -0.2500
vt 0.5635 0.7056 -0.2500
vt 0.8195 0.9800 -0.2500
vt 0.8907 0.9469 -0.2500
vt 0.9866 0.8009 -0.2500
vt 0.9487 0.8847 -0.2500
vt 0.9998 0.7056 -0.2500
vt 0.9866 0.6102 -0.2500
vt 0.8907 0.4642 -0.2500
vt 0.9487 0.5264 -0.2500
vt 0.8195 0.4311 -0.2500
vt 0.7437 0.4311 -0.2500
vt 0.6145 0.5264 -0.2500
vt 0.6726 0.4642 -0.2500
vt 0.5766 0.6102 -0.2500
vt 0.5766 0.8009 -0.2500
vt 0.5766 0.6102 0.2500
vt 0.6145 0.5264 0.2500
vt 0.6726 0.4642 0.2500
vt 0.5766 0.8009 0.2500
vt 0.7437 0.4311 0.2500
vt 0.8195 0.4311 0.2500
vt 0.9487 0.5264 0.2500
vt 0.8907 0.4642 0.2500
vt 0.9866 0.6102 0.2500
vt 0.9998 0.7056 0.2500
vt 0.9487 0.8847 0.2500
vt 0.9866 0.8009 0.2500
vt 0.6726 0.9469 0.2500
vt 0.8907 0.9469 0.2500
vt 0.8195 0.9800 0.2500
vt 0.7437 0.9800 0.2500
vt 0.6145 0.8847 0.2500
vt 0.5635 0.7056 0.2500
# 112 texture coords

g Broken_Plank_3
usemtl Material__25
s 8
f 1/1/1 2/2/2 3/3/3 4/4/4 
f 2/2/2 5/5/5 6/6/6 3/3/3 
f 5/5/5 7/7/7 8/8/8 6/6/6 
f 7/7/7 9/9/9 10/10/10 8/8/8 
f 9/9/9 11/11/11 12/12/12 10/10/10 
f 11/13/11 13/14/13 14/15/14 12/16/12 
f 13/14/13 15/17/15 16/18/16 14/15/14 
f 15/17/15 17/19/17 18/20/18 16/18/16 
f 17/19/17 19/21/19 20/22/20 18/20/18 
f 19/21/19 21/23/21 22/24/22 20/22/20 
f 21/23/21 23/25/23 24/26/24 22/24/22 
f 23/25/23 25/27/25 26/28/26 24/26/24 
f 25/27/25 27/29/27 28/30/28 26/28/26 
f 27/29/27 29/31/29 30/32/30 28/30/28 
f 29/31/29 31/33/31 32/34/32 30/32/30 
f 31/33/31 33/35/33 34/36/34 32/34/32 
f 33/35/33 35/37/35 36/38/36 34/36/34 
f 35/37/35 1/1/1 4/4/4 36/38/36 
f 4/4/4 3/3/3 37/39/37 38/40/38 
f 3/3/3 6/6/6 39/41/39 37/39/37 
f 6/6/6 8/8/8 40/42/40 39/41/39 
f 8/8/8 10/10/10 41/43/41 40/42/40 
f 10/10/10 12/12/12 42/44/42 41/43/41 
f 12/16/12 14/15/14 43/45/43 42/46/42 
f 14/15/14 16/18/16 44/47/44 43/45/43 
f 16/18/16 18/20/18 45/48/45 44/47/44 
f 18/20/18 20/22/20 46/49/46 45/48/45 
f 20/22/20 22/24/22 47/50/47 46/49/46 
f 22/24/22 24/26/24 48/51/48 47/50/47 
f 24/26/24 26/28/26 49/52/49 48/51/48 
f 26/28/26 28/30/28 50/53/50 49/52/49 
f 28/30/28 30/32/30 51/54/51 50/53/50 
f 30/32/30 32/34/32 52/55/52 51/54/51 
f 32/34/32 34/36/34 53/56/53 52/55/52 
f 34/36/34 36/38/36 54/57/54 53/56/53 
f 36/38/36 4/4/4 38/40/38 54/57/54 
f 38/40/38 37/39/37 55/58/55 56/59/56 
f 37/39/37 39/41/39 57/60/57 55/58/55 
f 39/41/39 40/42/40 58/61/58 57/60/57 
f 40/42/40 41/43/41 59/62/59 58/61/58 
f 41/43/41 42/44/42 60/63/60 59/62/59 
f 42/46/42 43/45/43 61/64/61 60/65/60 
f 43/45/43 44/47/44 62/66/62 61/64/61 
f 44/47/44 45/48/45 63/67/63 62/66/62 
f 45/48/45 46/49/46 64/68/64 63/67/63 
f 46/49/46 47/50/47 65/69/65 64/68/64 
f 47/50/47 48/51/48 66/70/66 65/69/65 
f 48/51/48 49/52/49 67/71/67 66/70/66 
f 49/52/49 50/53/50 68/72/68 67/71/67 
f 50/53/50 51/54/51 69/73/69 68/72/68 
f 51/54/51 52/55/52 70/74/70 69/73/69 
f 52/55/52 53/56/53 71/75/71 70/74/70 
f 53/56/53 54/57/54 72/76/72 71/75/71 
f 54/57/54 38/40/38 56/59/56 72/76/72 
s 1
f 33/77/73 31/78/73 29/79/73 1/80/73 
f 29/79/73 27/81/73 25/82/73 21/83/74 
f 25/82/73 23/84/73 21/83/74 
f 21/83/74 19/85/75 17/86/76 13/87/77 
f 17/86/76 15/88/78 13/87/77 
f 13/87/77 11/89/73 9/90/73 5/91/73 
f 9/90/73 7/92/73 5/91/73 
f 21/83/74 13/87/77 5/91/73 29/79/73 
f 5/91/73 2/93/73 1/80/73 29/79/73 
f 35/94/73 33/77/73 1/80/73 
f 55/95/79 57/96/79 58/97/79 72/98/79 
f 58/97/79 59/99/79 60/100/79 62/101/79 
f 60/100/79 61/102/79 62/101/79 
f 62/101/79 63/103/79 64/104/79 66/105/79 
f 64/104/79 65/106/79 66/105/79 
f 58/97/79 62/101/79 66/105/79 70/107/79 
f 66/105/79 67/108/79 68/109/79 70/107/79 
f 68/109/79 69/110/79 70/107/79 
f 70/107/79 71/111/79 72/98/79 58/97/79 
f 56/112/79 55/95/79 72/98/79 
# 66 polygons - 8 triangles

