# 3ds Max Wavefront OBJ Exporter v0.97b - (c)2007 guruware
# File Created: 12.11.2017 22:36:34

mtllib Broken Plank 3.mtl

#
# object Broken_Plank_2
#

v  -48.2129 0.0000 45.4983
v  4.3819 0.0000 45.4983
v  4.3819 0.0000 46.9983
v  -50.1791 0.0000 46.9983
v  4.3819 1.9809 45.4983
v  -48.2129 2.4034 45.4983
v  -49.6181 2.0000 46.9983
v  3.7913 1.9809 46.9983
v  -22.8986 0.0000 51.0363
v  -22.3341 2.2739 51.5215
v  -35.6920 2.1369 48.7409
v  -36.5389 0.0000 50.0872
v  -30.8374 0.0000 41.9713
v  -30.8374 2.2689 41.9091
v  -13.2278 2.1345 42.4983
v  -13.2277 0.0000 40.3085
v  -49.6181 1.9098 43.9983
v  -49.6181 0.0000 43.9983
v  4.3819 0.0000 41.6878
v  5.2788 0.0000 43.9983
v  -48.4471 0.0000 42.4983
v  4.3819 0.0000 48.4983
v  -9.2584 0.0000 48.4983
v  -50.1791 0.0000 48.4983
v  -48.4471 2.4034 42.4983
v  4.3819 2.0000 42.4983
v  5.8262 2.0000 43.9983
v  -8.9761 2.4108 48.3587
v  4.3819 2.5478 49.4687
v  -49.0500 2.0000 48.4983
# 30 vertices

vn 0.0000 -1.0000 -0.0000
vn 0.0055 0.9999 0.0158
vn 0.0033 0.9998 -0.0209
vn 0.0033 0.9943 0.1062
vn 0.0039 0.9938 -0.1113
vn -0.0330 -0.1581 0.9869
vn 0.0223 -0.1972 0.9801
vn -0.0518 0.5120 0.8574
vn -0.0411 0.5223 0.8518
vn 0.9355 0.0873 0.3423
vn 0.8672 -0.0546 0.4950
vn 0.9761 0.2110 -0.0519
vn 0.9740 0.2142 -0.0732
vn -0.0032 0.0130 -0.9999
vn 0.0014 -0.0262 -0.9997
vn -0.0268 0.6944 -0.7191
vn -0.0273 0.7045 -0.7092
vn -0.9965 0.0000 -0.0831
vn -0.9964 0.0648 -0.0539
vn -0.9992 0.0000 0.0407
vn -0.9990 0.0000 0.0449
vn 0.0019 0.9826 0.1857
vn 0.0181 0.9455 0.3253
vn 0.0081 0.9999 0.0132
vn 0.0071 0.9492 0.3145
vn -0.0015 1.0000 0.0055
vn 0.0030 1.0000 0.0050
vn -0.0063 0.9777 -0.2101
vn -0.0103 0.9999 -0.0000
vn -0.0138 0.9191 -0.3938
vn 0.0088 0.9742 -0.2256
vn 0.0002 1.0000 -0.0056
vn 0.8449 0.0077 -0.5348
vn 0.6935 0.2706 -0.6677
vn 0.9868 -0.1317 0.0939
vn 0.9683 -0.1976 0.1529
vn 0.9703 0.1683 -0.1736
vn 1.0000 0.0000 -0.0000
vn -0.9243 0.3581 0.1318
vn -0.8270 0.4669 0.3132
vn -0.9020 0.3310 -0.2773
vn -0.9053 0.2050 -0.3720
vn -0.7882 0.0000 -0.6154
vn -0.0661 -0.3113 0.9480
vn -0.0738 -0.3550 0.9320
vn 0.1014 0.0185 0.9947
vn 0.1222 0.0275 0.9921
vn -0.1078 0.1108 0.9880
vn -0.1155 0.0652 0.9912
vn -0.0332 -0.0022 -0.9994
vn -0.0334 0.0000 -0.9994
vn 0.0657 0.4150 -0.9075
vn 0.0724 0.3746 -0.9244
# 53 vertex normals

vt 0.5591 0.4842 0.0000
vt 0.0022 0.4842 0.0000
vt 0.0022 0.4109 0.0000
vt 0.5591 0.4109 0.0000
vt 0.2807 0.3376 0.0000
vt 0.2807 0.6309 0.0000
vt 0.1414 0.6309 0.0000
vt 0.1414 0.3376 0.0000
vt 0.3735 0.3376 0.0000
vt 0.3735 0.6309 0.0000
vt 0.1878 0.6309 0.0000
vt 0.1878 0.3376 0.0000
vt 0.0022 0.6309 0.0000
vt 0.0022 0.5575 0.0000
vt 0.5591 0.6309 0.0000
vt 0.5591 0.5575 0.0000
vt 0.0022 0.3376 0.0000
vt 0.4199 0.3376 0.0000
vt 0.5591 0.3376 0.0000
vt 0.4199 0.6309 0.0000
# 20 texture coords

g Broken_Plank_2
usemtl Material__25
s 2
f 1/1/1 2/2/1 3/3/1 4/4/1 
s 4
f 5/1/2 6/2/3 7/3/4 8/4/5 
s 8
f 9/5/6 10/6/7 11/7/8 12/8/9 
s 16
f 2/5/10 5/6/11 8/7/12 3/8/13 
s 32
f 13/9/14 14/10/15 15/11/16 16/12/17 
s 64
f 1/5/18 6/6/19 17/7/20 18/8/21 
s 2
f 16/11/1 19/13/1 20/14/1 13/10/1 
f 21/15/1 13/10/1 20/14/1 18/16/1 
f 18/16/1 20/14/1 2/2/1 1/1/1 
f 3/3/1 22/17/1 23/8/1 12/18/1 
f 23/8/1 9/5/1 12/18/1 
f 3/3/1 12/18/1 24/19/1 4/4/1 
s 4
f 14/11/22 25/13/23 17/14/24 15/10/25 
f 26/15/26 15/10/25 17/14/24 27/16/27 
f 27/16/27 17/14/24 6/2/3 5/1/2 
f 11/8/28 10/5/29 28/18/30 8/4/5 
f 28/18/30 29/19/31 8/4/5 
f 30/17/32 11/8/28 8/4/5 7/3/4 
s 16
f 19/19/33 26/15/34 27/20/35 20/18/36 
f 20/18/36 27/20/35 5/6/11 2/5/10 
f 29/13/37 22/17/38 3/8/13 8/7/12 
s 64
f 24/19/39 30/15/40 7/20/41 4/18/42 
f 4/18/42 7/20/41 6/6/19 1/5/18 
f 25/13/43 21/17/43 18/8/21 17/7/20 
s 8
f 22/19/44 29/15/45 28/20/46 23/18/47 
f 23/18/47 28/20/46 10/6/7 9/5/6 
f 30/13/48 24/17/49 12/8/9 11/7/8 
s 32
f 21/19/50 25/15/51 14/10/15 13/9/14 
f 26/13/52 19/17/53 16/12/17 15/11/16 
# 27 polygons - 2 triangles

